<svg id="eChVbAOpLjW1" xmlns="http://www.w3.org/2000/svg" xmlns:xlink="http://www.w3.org/1999/xlink" viewBox="0 0 841.9 360" shape-rendering="geometricPrecision" text-rendering="geometricPrecision"><rect width="841.9" height="423.681315" rx="0" ry="0" transform="matrix(1 0 0 0.849676 0 0)" fill="#4b505c" stroke-width="0"/><g transform="translate(0-111.400616)"><g><g><g><path d="M766,357.4h-113.2c-4.3,0-7.8-3.5-7.8-7.8v-111.6h128.7v111.6c.1,4.4-3.4,7.8-7.7,7.8Z" fill="#6bbdc6"/><path d="M645,238h128.7v17.6h-128.7v-17.6Z" fill="#b3b3b3"/><path d="M766,349.6h-113.2c-4.3,0-7.8-3.5-7.8-7.8v7.8c0,4.3,3.5,7.8,7.8,7.8h113.2c4.3,0,7.8-3.5,7.8-7.8v-7.8c0,4.4-3.5,7.8-7.8,7.8Z" fill="#13a8b2"/></g><g><path d="M671.9,248.8v0c-1.1,0-1.9-.9-1.9-1.9v0c0-1.1.9-1.9,1.9-1.9v0c1.1,0,1.9.9,1.9,1.9v0c0,1-.8,1.9-1.9,1.9Zm-7.8,0v0c-1.1,0-1.9-.9-1.9-1.9v0c0-1.1.9-1.9,1.9-1.9v0c1.1,0,1.9.9,1.9,1.9v0c.1,1-.8,1.9-1.9,1.9Zm-7.8,0v0c-1.1,0-1.9-.9-1.9-1.9v0c0-1.1.9-1.9,1.9-1.9v0c1.1,0,1.9.9,1.9,1.9v0c.1,1-.8,1.9-1.9,1.9Z" fill="#fff"/><path d="M728,310.1h-35c-1.1,0-1.9-.9-1.9-1.9v0c0-1.1.9-1.9,1.9-1.9h35c1.1,0,1.9.9,1.9,1.9v0c0,1-.9,1.9-1.9,1.9Z" fill="#010101"/><path d="M766.1,279.1h-.3c-1,0-1.8-.8-1.8-1.8v-11.8h-11.8c-1,0-1.8-.8-1.8-1.8v-.3c0-1,.8-1.8,1.8-1.8h15.7v15.7c0,.9-.8,1.8-1.8,1.8Z" fill="#fff"/></g><g><path d="M740.3,236.1v3.9h31.6v13.8h-96.7v3.9h96.7v36.4h3.9v-58h-35.5Z" fill="#010101"/><path d="M771.8,349.6c0,3.2-2.6,5.8-5.8,5.8h-113.2c-3.2,0-5.8-2.6-5.8-5.8v-31.6h-3.9v31.6c0,5.4,4.4,9.7,9.7,9.7h113.2c5.4,0,9.7-4.4,9.7-9.7v-55.6h-3.9v55.6Z" fill="#010101"/><path d="M647,257.6h28.2v-3.9h-28.2v-13.7h93.3v-3.9h-97.2v81.9h3.9v-60.4Z" fill="#010101"/><path d="M668.8,274.5l16,14c.9.8.9,2.2,0,2.9l-16,14c-.8.7-.9,1.9-.2,2.7v0c.7.8,1.9.9,2.7.2l19.3-16.9c.9-.8.9-2.2,0-2.9l-19.3-16.9c-.8-.7-2-.6-2.7.2v0c-.7.8-.6,2,.2,2.7Z" fill="#010101"/></g></g><g><path d="M698.1,345.1c-1,.4-1.9.7-2.8.9s-1.8.3-2.8.3c-1.5,0-2.9-.2-4.1-.7s-2.2-1.1-3-2-1.4-2-1.9-3.3c-.4-1.3-.6-2.9-.6-4.6c0-1.8.2-3.4.7-4.8s1.1-2.6,2-3.6s1.9-1.7,3.1-2.2s2.6-.8,4.1-.8c.5,0,1,0,1.4,0s.9.1,1.3.1c.4.1.8.1,1.3.2.4.1.9.2,1.3.4v4c-.9-.4-1.8-.7-2.7-.9-.8-.2-1.6-.3-2.3-.3-1,0-1.9.2-2.6.5-.7.4-1.3.9-1.8,1.5-.5.7-.8,1.4-1,2.4-.2.9-.3,1.9-.3,3c0,1.2.1,2.2.3,3.1s.6,1.7,1,2.3c.5.6,1.1,1.1,1.8,1.5.7.3,1.6.5,2.6.5.4,0,.8,0,1.2-.1s.8-.2,1.3-.3c.4-.1.9-.3,1.3-.4.4-.2.8-.3,1.2-.5v3.8Z"/><path d="M703.3,345.9v-21.4h4.1v18h9v3.5h-13.1Z"/><path d="M721,327.8v-3.3h13.5v3.3h-4.7v14.8h4.7v3.3h-13.5v-3.3h4.7v-14.8h-4.7Z"/></g></g></g><g transform="translate(0-111.40061)"><g><g><g><path d="M148.7,354.4v7.9h-66.2v-7.9h10.3l7.9-18h29.7l7.9,18h10.4Z" fill="#b8e5f9"/><path d="M92.9,354.4h45.5l-3.5-7.9h-38.5l-3.5,7.9Z" fill="#8cd7f4"/><path d="M181.3,249c0-4.4-3.6-7.9-7.9-7.9h-115.5c-4.4,0-7.9,3.6-7.9,7.9v65.1h131.3v-65.1Z" fill="#6bbdc6"/><path d="M50,304.1h131.3v10.1h-131.3v-10.1Z" fill="#13a8b2"/><path d="M50,312.1v16.4c0,4.4,3.6,7.9,7.9,7.9h115.5c4.4,0,7.9-3.6,7.9-7.9v-16.4h-131.3Z" fill="#b8e5f9"/><circle r="4" transform="translate(115.6 324.2)" fill="#dcccc8"/><path d="M173.4,328.5h-115.5c-4.4,0-7.9-3.6-7.9-7.9v7.9c0,4.4,3.6,7.9,7.9,7.9h115.5c4.4,0,7.9-3.6,7.9-7.9v-7.9c0,4.3-3.5,7.9-7.9,7.9Z" fill="#8cd7f4"/></g><g><path d="M60.8,312.1h-4" fill="none" stroke="#1f191a" stroke-width="15.0294" stroke-miterlimit="10.0196"/><g><path d="M150.7,364.4h-50.1v-4h46.1v-4h-9.6l-8.5-19.2l3.6-1.6l7.4,16.8h9.2c1,0,1.9.8,1.9,1.9v10.1Zm-50.1,0h-20v-10.1c0-1,.8-1.9,1.9-1.9h9.2l7.4-16.8l3.6,1.6-8.5,19.2h-9.6v4h16.1v4Z" fill="#010101"/><rect width="129.4" height="4" rx="0" ry="0" transform="translate(52 310.1)" fill="#010101"/><path d="M115.6,329.7c-3,0-5.5-2.5-5.5-5.5s2.5-5.5,5.5-5.5s5.5,2.5,5.5,5.5-2.4,5.5-5.5,5.5Zm0-7.9c-1.4,0-2.5,1.1-2.5,2.5s1.1,2.5,2.5,2.5s2.5-1.1,2.5-2.5-1.1-2.5-2.5-2.5Z" fill="#010101"/><path d="M112.5,356.4h-19.6v-4h19.6c1,0,1.9.8,1.9,1.9v.3c-.1,1-.9,1.8-1.9,1.8Z" fill="#010101"/><path d="M173.4,338.4h-46.3v-4h46.3c3.3,0,6-2.7,6-6v-79.4c0-3.3-2.7-6-6-6h-34.3v-4h34.3c5.5,0,9.9,4.5,9.9,9.9v79.4c0,5.7-4.4,10.1-9.9,10.1Zm-46.3,0h-69.2c-5.5,0-9.9-4.5-9.9-9.9v-79.5c0-5.5,4.5-9.9,9.9-9.9h34.3v4h-34.3c-3.3,0-6,2.7-6,6v79.4c0,3.3,2.7,6,6,6h69.1v3.9Z" fill="#010101"/></g></g><g><path d="M156,318h17.2c1.1,0,2,.9,2,2v0c0,1.1-.9,2-2,2h-17.2c-1.1,0-2-.9-2-2v0c0-1.1.9-2,2-2Z" fill="#fff"/></g></g><g><path d="M131.8,249.6h-30.6c-4.7,0-8.5-3.8-8.5-8.5v0c0-4.7,3.8-8.5,8.5-8.5h30.6c4.7,0,8.5,3.8,8.5,8.5v0c0,4.7-3.8,8.5-8.5,8.5Z" fill="#f79c88"/><path d="M131.8,251.3h-30.6c-5.6,0-10.2-4.6-10.2-10.2s4.6-10.2,10.2-10.2h30.6c5.6,0,10.2,4.6,10.2,10.2s-4.5,10.2-10.2,10.2Zm-30.5-17c-3.7,0-6.8,3-6.8,6.8c0,3.7,3,6.8,6.8,6.8h30.6c3.7,0,6.8-3,6.8-6.8c0-3.7-3-6.8-6.8-6.8h-30.6Z" fill="#010101"/></g><g><path d="M134,250c-11.5,1.6-23.3,1.6-34.9,0-3.7-.6-6.6-4.7-6.6-8.4v0c15.6,5.1,32.5,5.1,48.1,0v0c.1,3.7-2.9,7.8-6.6,8.4Z" fill="#f26a4b"/></g><path d="M131.9,251.3h-30.6c-5.6,0-10.2-4.6-10.2-10.2s4.6-10.2,10.2-10.2h30.6c5.6,0,10.2,4.6,10.2,10.2s-4.6,10.2-10.2,10.2Zm-30.6-17c-3.7,0-6.8,3-6.8,6.8c0,3.7,3,6.8,6.8,6.8h30.6c3.7,0,6.8-3,6.8-6.8c0-3.7-3-6.8-6.8-6.8h-30.6Z" fill="#010101"/><text dx="0" dy="0" font-family="&quot;Consolas-Bold&quot;" font-size="10.201" font-weight="400" transform="translate(105.098 244.518)" fill="#010101"><![CDATA[JSON]]></text><g><path d="M76.6,299.9c-1,.4-1.9.7-2.8.9s-1.8.2-2.8.2c-1.5,0-2.9-.2-4.1-.7s-2.2-1.1-3-2-1.4-2-1.9-3.3c-.4-1.3-.6-2.9-.6-4.6c0-1.8.2-3.4.7-4.8s1.1-2.6,2-3.6s1.9-1.7,3.1-2.2s2.6-.8,4.1-.8c.5,0,1,0,1.4,0s.9.1,1.3.1c.4.1.8.1,1.3.2.4.1.9.2,1.3.4v4c-.9-.4-1.8-.8-2.7-.9-.8-.2-1.6-.3-2.3-.3-1,0-1.9.2-2.6.6s-1.3.9-1.8,1.5c-.5.7-.8,1.5-1,2.4s-.3,1.9-.3,3c0,1.2.1,2.2.3,3.1s.6,1.7,1,2.3c.5.6,1.1,1.1,1.8,1.5.7.3,1.6.5,2.6.5.4,0,.8,0,1.2-.1s.8-.2,1.3-.3c.4-.1.9-.3,1.3-.4.4-.2.8-.3,1.2-.5v3.8Z" fill="#010101"/><path d="M81.9,300.7v-21.5h4.1v18h9.1v3.5h-13.2Z" fill="#010101"/><path d="M99.6,282.5v-3.3h13.6v3.3h-4.7v14.9h4.7v3.3h-13.6v-3.3h4.7v-14.9h-4.7Z" fill="#010101"/><path d="M118.7,300.7v-21.5h13v3.4h-8.8v5.3h8.4v3.3h-8.4v6h8.8v3.4h-13Z" fill="#010101"/><path d="M146.4,300.7l-5.8-12.8-1.2-2.8v8.9v6.7h-3.7v-21.5h5l5.9,12.9l1,2.5v-9.5-5.9h3.7v21.5h-4.9Z" fill="#010101"/><path d="M164.1,282.6v18.1h-4.1v-18.1h-6v-3.4h16v3.4h-5.9Z" fill="#010101"/></g></g><path id="eChVbAOpLjW58" d="M455.3,280.8c.8-2.6,1.1-5.5,1.1-8.5s-.4-5.6-1.1-8.5l5.3-4.7c.8-.8,1.1-2.1.6-3l-5.5-9.4c-.6-.9-1.7-1.5-2.8-1.1l-6.6,2.3c-4.1-3.8-9.2-6.6-14.7-8.3l-1.3-6.8c-.2-1.1-1.1-1.9-2.3-1.9h-10.9c-1.1,0-2.1.8-2.3,1.9l-1.3,6.8c-5.6,1.5-10.5,4.5-14.5,8.5l-6.6-2.3c-1.1-.4-2.3,0-2.8,1.1l-5.8,9.4c-.6.9-.4,2.3.6,3l5.1,4.5c-.8,2.6-1.1,5.5-1.1,8.5s.4,5.6,1.1,8.5l-5.3,4.7c-.8.8-1.1,2.1-.6,3l5.5,9.4c.6.9,1.7,1.5,2.8,1.1l6.6-2.3c4,4,9,6.8,14.5,8.5l1.3,6.8c.2,1.1,1.1,1.9,2.3,1.9h10.9c1.1,0,2.1-.8,2.3-1.9l1.3-6.8c5.6-1.5,10.5-4.5,14.5-8.5l6.6,2.3c1.1.4,2.3,0,2.8-1.1l5.5-9.4c.6-.9.4-2.3-.6-3l-4.6-4.7Zm-33,15.6c-13.2,0-24.1-10.7-24.1-24.1s10.7-24.1,24.1-24.1c13.2,0,24.1,10.7,24.1,24.1s-10.9,24.1-24.1,24.1Z" fill="#6bbdc6"/><g><path d="M422.3,297.9c-14.1,0-25.6-11.5-25.6-25.6s11.5-25.6,25.6-25.6s25.6,11.5,25.6,25.6-11.4,25.6-25.6,25.6Zm0-48.4c-12.4,0-22.8,10.2-22.8,22.8s10.2,22.8,22.8,22.8s22.8-10.2,22.8-22.8-10.3-22.8-22.8-22.8Z" fill="#13a8b2"/><circle r="12.2" transform="translate(422.3 272.3)" fill="#13a8b2"/></g><rect width="119.7" height="83.4" rx="0" ry="0" transform="translate(362.5 277.6)" fill="#f79c88"/><path d="M479.9,363.3h-115.2c-2.5,0-4.6-2.1-4.6-4.6v-78.9c0-2.5,2.1-4.6,4.6-4.6h115.2c2.5,0,4.6,2.1,4.6,4.6v78.9c0,2.5-2,4.6-4.6,4.6Zm-110.5-4.7h105.8c2.5,0,4.6-2.1,4.6-4.6v-69.5c0-2.5-2.1-4.6-4.6-4.6h-105.8c-2.5,0-4.6,2.1-4.6,4.6v69.5c0,2.6,2.1,4.6,4.6,4.6Z" fill="#010101"/><g><path d="M376.7,289.4h90.2c1.6,0,2.9,1.3,2.9,2.9v0c0,1.6-1.3,2.9-2.9,2.9h-90.2c-1.6,0-2.9-1.3-2.9-2.9v0c0-1.6,1.3-2.9,2.9-2.9Z" fill="#f16b4c"/><path d="M377.3,343.3h90.2c1.6,0,2.9,1.3,2.9,2.9v0c0,1.6-1.3,2.9-2.9,2.9h-90.2c-1.6,0-2.9-1.3-2.9-2.9v0c-.1-1.6,1.2-2.9,2.9-2.9Z" fill="#f16b4c"/></g><g><path d="M407.6,333.1l-1.4-5.1h-9l-1.5,5.1h-4.8l7.7-25.9h6.8l7.7,25.9h-5.5Zm-5.9-21.2L398.3,324h6.8l-3.4-12.1Z" fill="#010101"/><path d="M433.7,315.4c0,1.3-.2,2.6-.7,3.7s-1.1,2.1-2,3c-.9.8-2,1.5-3.3,1.9-1.3.5-2.9.7-4.6.7h-2.5v8.3h-4.9v-25.9h7.6c1.7,0,3.2.2,4.5.5c1.3.4,2.4.9,3.3,1.6s1.5,1.6,2,2.6c.4,1.1.6,2.3.6,3.6Zm-5.1.3c0-.7-.1-1.3-.3-1.9s-.5-1-1-1.4c-.4-.4-1-.7-1.7-.9s-1.5-.3-2.4-.3h-2.6v9.5h2.7c.8,0,1.6-.1,2.2-.3s1.2-.6,1.6-1s.8-1,1-1.6c.4-.6.5-1.3.5-2.1Z" fill="#010101"/><path d="M438.3,311.1v-4h16.4v4h-5.7v17.9h5.7v4h-16.4v-4h5.7v-17.9h-5.7Z" fill="#010101"/></g></g><g transform="translate(0-111.400616)"><circle id="eChVbAOpLjW72" r="9.5" transform="translate(230.1 299)" fill="#f26a4b" fill-opacity="0.3"/><circle id="eChVbAOpLjW73" r="9.5" transform="translate(271.7 299)" fill="#f26a4b" fill-opacity="0.3"/><circle id="eChVbAOpLjW74" r="9.5" transform="translate(313.4 299)" fill="#f26a4b" fill-opacity="0.3"/><g transform="translate(293.723913 1.000006)"><circle id="eChVbAOpLjW76" r="9.5" transform="translate(230.1 299)" fill="#f26a4b" fill-opacity="0.3"/><circle id="eChVbAOpLjW77" r="9.5" transform="translate(271.7 299)" fill="#f26a4b" fill-opacity="0.3"/><circle id="eChVbAOpLjW78" r="9.5" transform="translate(313.4 299)" fill="#f26a4b" fill-opacity="0.3"/></g></g><script><![CDATA[!function(t,n){"object"==typeof exports&&"undefined"!=typeof module?module.exports=n():"function"==typeof define&&define.amd?define(n):((t="undefined"!=typeof globalThis?globalThis:t||self).__SVGATOR_PLAYER__=t.__SVGATOR_PLAYER__||{},t.__SVGATOR_PLAYER__["7c8cb2ed"]=n())}(this,(function(){"use strict";function t(t,n){var r=Object.keys(t);if(Object.getOwnPropertySymbols){var e=Object.getOwnPropertySymbols(t);n&&(e=e.filter((function(n){return Object.getOwnPropertyDescriptor(t,n).enumerable}))),r.push.apply(r,e)}return r}function n(n){for(var r=1;r<arguments.length;r++){var e=null!=arguments[r]?arguments[r]:{};r%2?t(Object(e),!0).forEach((function(t){o(n,t,e[t])})):Object.getOwnPropertyDescriptors?Object.defineProperties(n,Object.getOwnPropertyDescriptors(e)):t(Object(e)).forEach((function(t){Object.defineProperty(n,t,Object.getOwnPropertyDescriptor(e,t))}))}return n}function r(t){return(r="function"==typeof Symbol&&"symbol"==typeof Symbol.iterator?function(t){return typeof t}:function(t){return t&&"function"==typeof Symbol&&t.constructor===Symbol&&t!==Symbol.prototype?"symbol":typeof t})(t)}function e(t,n){if(!(t instanceof n))throw new TypeError("Cannot call a class as a function")}function i(t,n){for(var r=0;r<n.length;r++){var e=n[r];e.enumerable=e.enumerable||!1,e.configurable=!0,"value"in e&&(e.writable=!0),Object.defineProperty(t,e.key,e)}}function u(t,n,r){return n&&i(t.prototype,n),r&&i(t,r),t}function o(t,n,r){return n in t?Object.defineProperty(t,n,{value:r,enumerable:!0,configurable:!0,writable:!0}):t[n]=r,t}function a(t){return(a=Object.setPrototypeOf?Object.getPrototypeOf:function(t){return t.__proto__||Object.getPrototypeOf(t)})(t)}function l(t,n){return(l=Object.setPrototypeOf||function(t,n){return t.__proto__=n,t})(t,n)}function f(){if("undefined"==typeof Reflect||!Reflect.construct)return!1;if(Reflect.construct.sham)return!1;if("function"==typeof Proxy)return!0;try{return Boolean.prototype.valueOf.call(Reflect.construct(Boolean,[],(function(){}))),!0}catch(t){return!1}}function s(t,n,r){return(s=f()?Reflect.construct:function(t,n,r){var e=[null];e.push.apply(e,n);var i=new(Function.bind.apply(t,e));return r&&l(i,r.prototype),i}).apply(null,arguments)}function c(t,n){if(n&&("object"==typeof n||"function"==typeof n))return n;if(void 0!==n)throw new TypeError("Derived constructors may only return object or undefined");return function(t){if(void 0===t)throw new ReferenceError("this hasn't been initialised - super() hasn't been called");return t}(t)}function h(t,n,r){return(h="undefined"!=typeof Reflect&&Reflect.get?Reflect.get:function(t,n,r){var e=function(t,n){for(;!Object.prototype.hasOwnProperty.call(t,n)&&null!==(t=a(t)););return t}(t,n);if(e){var i=Object.getOwnPropertyDescriptor(e,n);return i.get?i.get.call(r):i.value}})(t,n,r||t)}function v(t){return function(t){if(Array.isArray(t))return y(t)}(t)||function(t){if("undefined"!=typeof Symbol&&null!=t[Symbol.iterator]||null!=t["@@iterator"])return Array.from(t)}(t)||function(t,n){if(!t)return;if("string"==typeof t)return y(t,n);var r=Object.prototype.toString.call(t).slice(8,-1);"Object"===r&&t.constructor&&(r=t.constructor.name);if("Map"===r||"Set"===r)return Array.from(t);if("Arguments"===r||/^(?:Ui|I)nt(?:8|16|32)(?:Clamped)?Array$/.test(r))return y(t,n)}(t)||function(){throw new TypeError("Invalid attempt to spread non-iterable instance.\nIn order to be iterable, non-array objects must have a [Symbol.iterator]() method.")}()}function y(t,n){(null==n||n>t.length)&&(n=t.length);for(var r=0,e=new Array(n);r<n;r++)e[r]=t[r];return e}Number.isInteger||(Number.isInteger=function(t){return"number"==typeof t&&isFinite(t)&&Math.floor(t)===t}),Number.EPSILON||(Number.EPSILON=2220446049250313e-31);var g=p(Math.pow(10,-6));function p(t){var n=arguments.length>1&&void 0!==arguments[1]?arguments[1]:6;if(Number.isInteger(t))return t;var r=Math.pow(10,n);return Math.round((+t+Number.EPSILON)*r)/r}function d(t,n){var r=arguments.length>2&&void 0!==arguments[2]?arguments[2]:g;return Math.abs(t-n)<r}var m=Math.PI/180;function b(t){return t}function A(t,n,r){var e=1-r;return 3*r*e*(t*e+n*r)+r*r*r}function w(){var t=arguments.length>0&&void 0!==arguments[0]?arguments[0]:0,n=arguments.length>1&&void 0!==arguments[1]?arguments[1]:0,r=arguments.length>2&&void 0!==arguments[2]?arguments[2]:1,e=arguments.length>3&&void 0!==arguments[3]?arguments[3]:1;return t<0||t>1||r<0||r>1?null:d(t,n)&&d(r,e)?b:function(i){if(i<=0)return t>0?i*n/t:0===n&&r>0?i*e/r:0;if(i>=1)return r<1?1+(i-1)*(e-1)/(r-1):1===r&&t<1?1+(i-1)*(n-1)/(t-1):1;for(var u,o=0,a=1;o<a;){var l=A(t,r,u=(o+a)/2);if(d(i,l))break;l<i?o=u:a=u}return A(n,e,u)}}function x(){return 1}function k(t){return 1===t?1:0}function _(){var t=arguments.length>0&&void 0!==arguments[0]?arguments[0]:1,n=arguments.length>1&&void 0!==arguments[1]?arguments[1]:0;if(1===t){if(0===n)return k;if(1===n)return x}var r=1/t;return function(t){return t>=1?1:(t+=n*r)-t%r}}var S=Math.sin,O=Math.cos,j=Math.acos,E=Math.asin,M=Math.tan,P=Math.atan2,I=Math.PI/180,R=180/Math.PI,B=Math.sqrt,F=function(){function t(){var n=arguments.length>0&&void 0!==arguments[0]?arguments[0]:1,r=arguments.length>1&&void 0!==arguments[1]?arguments[1]:0,i=arguments.length>2&&void 0!==arguments[2]?arguments[2]:0,u=arguments.length>3&&void 0!==arguments[3]?arguments[3]:1,o=arguments.length>4&&void 0!==arguments[4]?arguments[4]:0,a=arguments.length>5&&void 0!==arguments[5]?arguments[5]:0;e(this,t),this.m=[n,r,i,u,o,a],this.i=null,this.w=null,this.s=null}return u(t,[{key:"determinant",get:function(){var t=this.m;return t[0]*t[3]-t[1]*t[2]}},{key:"isIdentity",get:function(){if(null===this.i){var t=this.m;this.i=1===t[0]&&0===t[1]&&0===t[2]&&1===t[3]&&0===t[4]&&0===t[5]}return this.i}},{key:"point",value:function(t,n){var r=this.m;return{x:r[0]*t+r[2]*n+r[4],y:r[1]*t+r[3]*n+r[5]}}},{key:"translateSelf",value:function(){var t=arguments.length>0&&void 0!==arguments[0]?arguments[0]:0,n=arguments.length>1&&void 0!==arguments[1]?arguments[1]:0;if(!t&&!n)return this;var r=this.m;return r[4]+=r[0]*t+r[2]*n,r[5]+=r[1]*t+r[3]*n,this.w=this.s=this.i=null,this}},{key:"rotateSelf",value:function(){var t=arguments.length>0&&void 0!==arguments[0]?arguments[0]:0;if(t%=360){var n=S(t*=I),r=O(t),e=this.m,i=e[0],u=e[1];e[0]=i*r+e[2]*n,e[1]=u*r+e[3]*n,e[2]=e[2]*r-i*n,e[3]=e[3]*r-u*n,this.w=this.s=this.i=null}return this}},{key:"scaleSelf",value:function(){var t=arguments.length>0&&void 0!==arguments[0]?arguments[0]:1,n=arguments.length>1&&void 0!==arguments[1]?arguments[1]:1;if(1!==t||1!==n){var r=this.m;r[0]*=t,r[1]*=t,r[2]*=n,r[3]*=n,this.w=this.s=this.i=null}return this}},{key:"skewSelf",value:function(t,n){if(n%=360,(t%=360)||n){var r=this.m,e=r[0],i=r[1],u=r[2],o=r[3];t&&(t=M(t*I),r[2]+=e*t,r[3]+=i*t),n&&(n=M(n*I),r[0]+=u*n,r[1]+=o*n),this.w=this.s=this.i=null}return this}},{key:"resetSelf",value:function(){var t=arguments.length>0&&void 0!==arguments[0]?arguments[0]:1,n=arguments.length>1&&void 0!==arguments[1]?arguments[1]:0,r=arguments.length>2&&void 0!==arguments[2]?arguments[2]:0,e=arguments.length>3&&void 0!==arguments[3]?arguments[3]:1,i=arguments.length>4&&void 0!==arguments[4]?arguments[4]:0,u=arguments.length>5&&void 0!==arguments[5]?arguments[5]:0,o=this.m;return o[0]=t,o[1]=n,o[2]=r,o[3]=e,o[4]=i,o[5]=u,this.w=this.s=this.i=null,this}},{key:"recomposeSelf",value:function(){var t=arguments.length>0&&void 0!==arguments[0]?arguments[0]:null,n=arguments.length>1&&void 0!==arguments[1]?arguments[1]:null,r=arguments.length>2&&void 0!==arguments[2]?arguments[2]:null,e=arguments.length>3&&void 0!==arguments[3]?arguments[3]:null,i=arguments.length>4&&void 0!==arguments[4]?arguments[4]:null;return this.isIdentity||this.resetSelf(),t&&(t.x||t.y)&&this.translateSelf(t.x,t.y),n&&this.rotateSelf(n),r&&(r.x&&this.skewSelf(r.x,0),r.y&&this.skewSelf(0,r.y)),!e||1===e.x&&1===e.y||this.scaleSelf(e.x,e.y),i&&(i.x||i.y)&&this.translateSelf(i.x,i.y),this}},{key:"decompose",value:function(){var t=arguments.length>0&&void 0!==arguments[0]?arguments[0]:0,n=arguments.length>1&&void 0!==arguments[1]?arguments[1]:0,r=this.m,e=r[0]*r[0]+r[1]*r[1],i=[[r[0],r[1]],[r[2],r[3]]],u=B(e);if(0===u)return{origin:{x:p(r[4]),y:p(r[5])},translate:{x:p(t),y:p(n)},scale:{x:0,y:0},skew:{x:0,y:0},rotate:0};i[0][0]/=u,i[0][1]/=u;var o=r[0]*r[3]-r[1]*r[2]<0;o&&(u=-u);var a=i[0][0]*i[1][0]+i[0][1]*i[1][1];i[1][0]-=i[0][0]*a,i[1][1]-=i[0][1]*a;var l=B(i[1][0]*i[1][0]+i[1][1]*i[1][1]);if(0===l)return{origin:{x:p(r[4]),y:p(r[5])},translate:{x:p(t),y:p(n)},scale:{x:p(u),y:0},skew:{x:0,y:0},rotate:0};i[1][0]/=l,i[1][1]/=l,a/=l;var f=0;return i[1][1]<0?(f=j(i[1][1])*R,i[0][1]<0&&(f=360-f)):f=E(i[0][1])*R,o&&(f=-f),a=P(a,B(i[0][0]*i[0][0]+i[0][1]*i[0][1]))*R,o&&(a=-a),{origin:{x:p(r[4]),y:p(r[5])},translate:{x:p(t),y:p(n)},scale:{x:p(u),y:p(l)},skew:{x:p(a),y:0},rotate:p(f)}}},{key:"clone",value:function(){var t=this.m;return new this.constructor(t[0],t[1],t[2],t[3],t[4],t[5])}},{key:"toString",value:function(){var t=arguments.length>0&&void 0!==arguments[0]?arguments[0]:" ";if(null===this.s){var n=this.m.map((function(t){return p(t)}));1===n[0]&&0===n[1]&&0===n[2]&&1===n[3]?this.s="translate("+n[4]+t+n[5]+")":this.s="matrix("+n.join(t)+")"}return this.s}}],[{key:"create",value:function(t){return t?Array.isArray(t)?s(this,v(t)):t instanceof this?t.clone():(new this).recomposeSelf(t.origin,t.rotate,t.skew,t.scale,t.translate):new this}}]),t}();function N(t,n,r){return t>=.5?r:n}function T(t,n,r){return 0===t||n===r?n:t*(r-n)+n}function q(t,n,r){var e=T(t,n,r);return e<=0?0:e}function L(t,n,r){var e=T(t,n,r);return e<=0?0:e>=1?1:e}function C(t,n,r){return 0===t?n:1===t?r:{x:T(t,n.x,r.x),y:T(t,n.y,r.y)}}function D(t,n,r){return 0===t?n:1===t?r:{x:q(t,n.x,r.x),y:q(t,n.y,r.y)}}function V(t,n,r){var e=function(t,n,r){return Math.round(T(t,n,r))}(t,n,r);return e<=0?0:e>=255?255:e}function z(t,n,r){return 0===t?n:1===t?r:{r:V(t,n.r,r.r),g:V(t,n.g,r.g),b:V(t,n.b,r.b),a:T(t,null==n.a?1:n.a,null==r.a?1:r.a)}}function G(t,n,r){var e=n.length;if(e!==r.length)return N(t,n,r);for(var i=new Array(e),u=0;u<e;u++)i[u]=T(t,n[u],r[u]);return i}function Y(t,n){for(var r=[],e=0;e<t;e++)r.push(n);return r}function $(t,n){if(--n<=0)return t;var r=(t=Object.assign([],t)).length;do{for(var e=0;e<r;e++)t.push(t[e])}while(--n>0);return t}var U,Q=function(){function t(n){e(this,t),this.list=n,this.length=n.length}return u(t,[{key:"setAttribute",value:function(t,n){for(var r=this.list,e=0;e<this.length;e++)r[e].setAttribute(t,n)}},{key:"removeAttribute",value:function(t){for(var n=this.list,r=0;r<this.length;r++)n[r].removeAttribute(t)}},{key:"style",value:function(t,n){for(var r=this.list,e=0;e<this.length;e++)r[e].style[t]=n}}]),t}(),H=/-./g,J=function(t,n){return n.toUpperCase()};function Z(t){return"function"==typeof t?t:N}function K(t){return t?"function"==typeof t?t:Array.isArray(t)?function(t){var n=arguments.length>1&&void 0!==arguments[1]?arguments[1]:b;if(!Array.isArray(t))return n;switch(t.length){case 1:return _(t[0])||n;case 2:return _(t[0],t[1])||n;case 4:return w(t[0],t[1],t[2],t[3])||n}return n}(t,null):function(t,n){var r=arguments.length>2&&void 0!==arguments[2]?arguments[2]:b;switch(t){case"linear":return b;case"steps":return _(n.steps||1,n.jump||0)||r;case"bezier":case"cubic-bezier":return w(n.x1||0,n.y1||0,n.x2||0,n.y2||0)||r}return r}(t.type,t.value,null):null}function W(t,n,r){var e=arguments.length>3&&void 0!==arguments[3]&&arguments[3],i=n.length-1;if(t<=n[0].t)return e?[0,0,n[0].v]:n[0].v;if(t>=n[i].t)return e?[i,1,n[i].v]:n[i].v;var u,o=n[0],a=null;for(u=1;u<=i;u++){if(!(t>n[u].t)){a=n[u];break}o=n[u]}return null==a?e?[i,1,n[i].v]:n[i].v:o.t===a.t?e?[u,1,a.v]:a.v:(t=(t-o.t)/(a.t-o.t),o.e&&(t=o.e(t)),e?[u,t,r(t,o.v,a.v)]:r(t,o.v,a.v))}function X(t,n){var r=arguments.length>2&&void 0!==arguments[2]?arguments[2]:null;return t&&t.length?"function"!=typeof n?null:("function"!=typeof r&&(r=null),function(e){var i=W(e,t,n);return null!=i&&r&&(i=r(i)),i}):null}function tt(t,n){return t.t-n.t}function nt(t,n,e,i,u){var o,a="@"===e[0],l="#"===e[0],f=U[e],s=N;switch(a?(o=e.substr(1),e=o.replace(H,J)):l&&(e=e.substr(1)),r(f)){case"function":if(s=f(i,u,W,K,e,a,n,t),l)return s;break;case"string":s=X(i,Z(f));break;case"object":if((s=X(i,Z(f.i),f.f))&&"function"==typeof f.u)return f.u(n,s,e,a,t)}return s?function(t,n,r){if(arguments.length>3&&void 0!==arguments[3]&&arguments[3])return t instanceof Q?function(e){return t.style(n,r(e))}:function(e){return t.style[n]=r(e)};if(Array.isArray(n)){var e=n.length;return function(i){var u=r(i);if(null==u)for(var o=0;o<e;o++)t[o].removeAttribute(n);else for(var a=0;a<e;a++)t[a].setAttribute(n,u)}}return function(e){var i=r(e);null==i?t.removeAttribute(n):t.setAttribute(n,i)}}(n,e,s,a):null}function rt(t,n,e,i){if(!i||"object"!==r(i))return null;var u=null,o=null;return Array.isArray(i)?o=function(t){if(!t||!t.length)return null;for(var n=0;n<t.length;n++)t[n].e&&(t[n].e=K(t[n].e));return t.sort(tt)}(i):(o=i.keys,u=i.data||null),o?nt(t,n,e,o,u):null}function et(t,n,r){if(!r)return null;var e=[];for(var i in r)if(r.hasOwnProperty(i)){var u=rt(t,n,i,r[i]);u&&e.push(u)}return e.length?e:null}function it(t,n){if(!n.duration||n.duration<0)return null;var r=function(t,n){if(!n)return null;var r=[];if(Array.isArray(n))for(var e=n.length,i=0;i<e;i++){var u=n[i];if(2===u.length){var o=null;if("string"==typeof u[0])o=t.getElementById(u[0]);else if(Array.isArray(u[0])){o=[];for(var a=0;a<u[0].length;a++)if("string"==typeof u[0][a]){var l=t.getElementById(u[0][a]);l&&o.push(l)}o=o.length?1===o.length?o[0]:new Q(o):null}if(o){var f=et(t,o,u[1]);f&&(r=r.concat(f))}}}else for(var s in n)if(n.hasOwnProperty(s)){var c=t.getElementById(s);if(c){var h=et(t,c,n[s]);h&&(r=r.concat(h))}}return r.length?r:null}(t,n.elements);return r?function(t,n){var r=arguments.length>2&&void 0!==arguments[2]?arguments[2]:1/0,e=arguments.length>3&&void 0!==arguments[3]?arguments[3]:1,i=arguments.length>4&&void 0!==arguments[4]&&arguments[4],u=arguments.length>5&&void 0!==arguments[5]?arguments[5]:1,o=t.length,a=e>0?n:0;i&&r%2==0&&(a=n-a);var l=null;return function(f,s){var c=f%n,h=1+(f-c)/n;s*=e,i&&h%2==0&&(s=-s);var v=!1;if(h>r)c=a,v=!0,-1===u&&(c=e>0?0:n);else if(s<0&&(c=n-c),c===l)return!1;l=c;for(var y=0;y<o;y++)t[y](c);return v}}(r,n.duration,n.iterations||1/0,n.direction||1,!!n.alternate,n.fill||1):null}function ut(t){return+("0x"+(t.replace(/[^0-9a-fA-F]+/g,"")||27))}function ot(t,n,r){return!t||!r||n>t.length?t:t.substring(0,n)+ot(t.substring(n+1),r,r)}function at(t){var n=arguments.length>1&&void 0!==arguments[1]?arguments[1]:27;return!t||t%n?t%n:at(t/n,n)}function lt(t,n,r){if(t&&t.length){var e=ut(r),i=ut(n),u=at(e)+5,o=ot(t,at(e,5),u);return o=o.replace(/\x7c$/g,"==").replace(/\x2f$/g,"="),o=function(t,n,r){var e=+("0x"+t.substring(0,4));t=t.substring(4);for(var i=n%e+r%27,u=[],o=0;o<t.length;o+=2)if("|"!==t[o]){var a=+("0x"+t[o]+t[o+1])-i;u.push(a)}else{var l=+("0x"+t.substring(o+1,o+1+4))-i;o+=3,u.push(l)}return String.fromCharCode.apply(String,u)}(o=(o=atob(o)).replace(/[\x41-\x5A]/g,""),i,e),o=JSON.parse(o)}}var ft=function(){function t(n,r){var i=arguments.length>2&&void 0!==arguments[2]?arguments[2]:{};e(this,t),this._id=0,this._running=!1,this._rollingBack=!1,this._animations=n,this.duration=r.duration,this.alternate=r.alternate,this.fill=r.fill,this.iterations=r.iterations,this.direction=i.direction||1,this.speed=i.speed||1,this.fps=i.fps||100,this.offset=i.offset||0,this.rollbackStartOffset=0}return u(t,[{key:"maxFiniteDuration",get:function(){return this.iterations>0?this.iterations*this.duration:this.duration}},{key:"_apply",value:function(t){for(var n=arguments.length>1&&void 0!==arguments[1]?arguments[1]:{},r=this._animations,e=r.length,i=0,u=0;u<e;u++)n[u]?i++:(n[u]=r[u](t,this.direction),n[u]&&i++);return i}},{key:"_rollback",value:function(){var t=this,n=1/0,r=null;this.rollbackStartOffset=this.offset,this._rollingBack=!0,this._running=!0;this._id=window.requestAnimationFrame((function e(i){if(t._rollingBack){null==r&&(r=i);var u=i-r,o=t.rollbackStartOffset-u,a=Math.round(o*t.speed);if(a>t.duration&&n!==1/0){var l=!!t.alternate&&a/t.duration%2>1,f=a%t.duration;a=(f+=l?t.duration:0)||t.duration}var s=t.fps?1e3/t.fps:0,c=Math.max(0,a);c<n-s&&(t.offset=c,n=c,t._apply(c));var h=t.iterations>0&&-1===t.fill&&a>=t.maxFiniteDuration;(a<=0||t.offset<a||h)&&t.stop(),t._id=window.requestAnimationFrame(e)}}))}},{key:"_start",value:function(){var t=this,n=arguments.length>0&&void 0!==arguments[0]?arguments[0]:0,r=-1/0,e=null,i={};this._running=!0;var u=function u(o){null==e&&(e=o);var a=Math.round((o-e+n)*t.speed),l=t.fps?1e3/t.fps:0;if(a>r+l&&!t._rollingBack&&(t.offset=a,r=a,t._apply(a,i)===t._animations.length))return void t.pause(!0);t._id=window.requestAnimationFrame(u)};this._id=window.requestAnimationFrame(u)}},{key:"_pause",value:function(){this._id&&window.cancelAnimationFrame(this._id),this._running=!1}},{key:"play",value:function(){if(!this._running)return this._rollingBack?this._rollback():this._start(this.offset)}},{key:"stop",value:function(){this._pause(),this.offset=0,this.rollbackStartOffset=0,this._rollingBack=!1,this._apply(0)}},{key:"reachedToEnd",value:function(){return this.iterations>0&&this.offset>=this.iterations*this.duration}},{key:"restart",value:function(){var t=arguments.length>0&&void 0!==arguments[0]&&arguments[0];this.stop(t),this.play(t)}},{key:"pause",value:function(){this._pause()}},{key:"reverse",value:function(){this.direction=-this.direction}}],[{key:"build",value:function(t,r){return delete t.animationSettings,t.options=lt(t.options,t.root,"7c8cb2ed"),t.animations.map((function(r){var e=lt(r.s,t.root,"7c8cb2ed");for(var i in delete r.s,t.animationSettings||(t.animationSettings=n({},e)),e)e.hasOwnProperty(i)&&(r[i]=e[i])})),(t=function(t,n){if(U=n,!t||!t.root||!Array.isArray(t.animations))return null;for(var r=document.getElementsByTagName("svg"),e=!1,i=0;i<r.length;i++)if(r[i].id===t.root&&!r[i].svgatorAnimation){(e=r[i]).svgatorAnimation=!0;break}if(!e)return null;var u=t.animations.map((function(t){return it(e,t)})).filter((function(t){return!!t}));return u.length?{element:e,animations:u,animationSettings:t.animationSettings,options:t.options||void 0}:null}(t,r))?{el:t.element,options:t.options||{},player:new this(t.animations,t.animationSettings,t.options)}:null}},{key:"push",value:function(t){return this.build(t)}},{key:"init",value:function(){var t=this,n=window.__SVGATOR_PLAYER__&&window.__SVGATOR_PLAYER__["7c8cb2ed"];Array.isArray(n)&&n.splice(0).forEach((function(n){return t.build(n)}))}}]),t}();function st(t){return p(t)+""}function ct(t){var n=arguments.length>1&&void 0!==arguments[1]?arguments[1]:" ";return t&&t.length?t.map(st).join(n):""}function ht(t){return st(t.x)+","+st(t.y)}function vt(t){if(!t)return"transparent";if(null==t.a||t.a>=1){var n=function(t){return 1===(t=parseInt(t).toString(16)).length?"0"+t:t},r=function(t){return t.charAt(0)===t.charAt(1)},e=n(t.r),i=n(t.g),u=n(t.b);return r(e)&&r(i)&&r(u)&&(e=e.charAt(0),i=i.charAt(0),u=u.charAt(0)),"#"+e+i+u}return"rgba("+t.r+","+t.g+","+t.b+","+t.a+")"}function yt(t){return t?"url(#"+t+")":"none"}!function(){for(var t=0,n=["ms","moz","webkit","o"],r=0;r<n.length&&!window.requestAnimationFrame;++r)window.requestAnimationFrame=window[n[r]+"RequestAnimationFrame"],window.cancelAnimationFrame=window[n[r]+"CancelAnimationFrame"]||window[n[r]+"CancelRequestAnimationFrame"];window.requestAnimationFrame||(window.requestAnimationFrame=function(n){var r=Date.now(),e=Math.max(0,16-(r-t)),i=window.setTimeout((function(){n(r+e)}),e);return t=r+e,i},window.cancelAnimationFrame=window.clearTimeout)}();var gt={f:null,i:D,u:function(t,n){return function(r){var e=n(r);t.setAttribute("rx",st(e.x)),t.setAttribute("ry",st(e.y))}}},pt={f:null,i:function(t,n,r){return 0===t?n:1===t?r:{width:q(t,n.width,r.width),height:q(t,n.height,r.height)}},u:function(t,n){return function(r){var e=n(r);t.setAttribute("width",st(e.width)),t.setAttribute("height",st(e.height))}}};Object.freeze({M:2,L:2,Z:0,H:1,V:1,C:6,Q:4,T:2,S:4,A:7});var dt={},mt=null;function bt(t){var n=function(){if(mt)return mt;if("object"!==("undefined"==typeof document?"undefined":r(document))||!document.createElementNS)return{};var t=document.createElementNS("http://www.w3.org/2000/svg","svg");return t&&t.style?(t.style.position="absolute",t.style.opacity="0.01",t.style.zIndex="-9999",t.style.left="-9999px",t.style.width="1px",t.style.height="1px",mt={svg:t}):{}}().svg;if(!n)return function(t){return null};var e=document.createElementNS(n.namespaceURI,"path");e.setAttributeNS(null,"d",t),e.setAttributeNS(null,"fill","none"),e.setAttributeNS(null,"stroke","none"),n.appendChild(e);var i=e.getTotalLength();return function(t){var n=e.getPointAtLength(i*t);return{x:n.x,y:n.y}}}function At(t){return dt[t]?dt[t]:dt[t]=bt(t)}function wt(t,n,r,e){if(!t||!e)return!1;var i=["M",t.x,t.y];if(n&&r&&(i.push("C"),i.push(n.x),i.push(n.y),i.push(r.x),i.push(r.y)),n?!r:r){var u=n||r;i.push("Q"),i.push(u.x),i.push(u.y)}return n||r||i.push("L"),i.push(e.x),i.push(e.y),i.join(" ")}function xt(t,n,r,e){var i=arguments.length>4&&void 0!==arguments[4]?arguments[4]:1,u=wt(t,n,r,e),o=At(u);try{return o(i)}catch(t){return null}}function kt(t,n,r){return t+(n-t)*r}function _t(t,n,r){var e=arguments.length>3&&void 0!==arguments[3]&&arguments[3],i={x:kt(t.x,n.x,r),y:kt(t.y,n.y,r)};return e&&(i.a=St(t,n)),i}function St(t,n){return Math.atan2(n.y-t.y,n.x-t.x)}function Ot(t,n,r,e){var i=1-e;return i*i*t+2*i*e*n+e*e*r}function jt(t,n,r,e){return 2*(1-e)*(n-t)+2*e*(r-n)}function Et(t,n,r,e){var i=arguments.length>4&&void 0!==arguments[4]&&arguments[4],u=xt(t,n,null,r,e);return u||(u={x:Ot(t.x,n.x,r.x,e),y:Ot(t.y,n.y,r.y,e)}),i&&(u.a=Mt(t,n,r,e)),u}function Mt(t,n,r,e){return Math.atan2(jt(t.y,n.y,r.y,e),jt(t.x,n.x,r.x,e))}function Pt(t,n,r,e,i){var u=i*i;return i*u*(e-t+3*(n-r))+3*u*(t+r-2*n)+3*i*(n-t)+t}function It(t,n,r,e,i){var u=1-i;return 3*(u*u*(n-t)+2*u*i*(r-n)+i*i*(e-r))}function Rt(t,n,r,e,i){var u=arguments.length>5&&void 0!==arguments[5]&&arguments[5],o=xt(t,n,r,e,i);return o||(o={x:Pt(t.x,n.x,r.x,e.x,i),y:Pt(t.y,n.y,r.y,e.y,i)}),u&&(o.a=Bt(t,n,r,e,i)),o}function Bt(t,n,r,e,i){return Math.atan2(It(t.y,n.y,r.y,e.y,i),It(t.x,n.x,r.x,e.x,i))}function Ft(t,n,r){var e=arguments.length>3&&void 0!==arguments[3]&&arguments[3];if(Tt(n)){if(qt(r))return Et(n,r.start,r,t,e)}else if(Tt(r)){if(n.end)return Et(n,n.end,r,t,e)}else{if(n.end)return r.start?Rt(n,n.end,r.start,r,t,e):Et(n,n.end,r,t,e);if(r.start)return Et(n,r.start,r,t,e)}return _t(n,r,t,e)}function Nt(t,n,r){var e=Ft(t,n,r,!0);return e.a=function(t){return arguments.length>1&&void 0!==arguments[1]&&arguments[1]?t+Math.PI:t}(e.a)/m,e}function Tt(t){return!t.type||"corner"===t.type}function qt(t){return null!=t.start&&!Tt(t)}var Lt=new F;var Ct={f:function(t){return t?t.join(" "):""},i:function(t,n,e){if(0===t)return n;if(1===t)return e;var i=n.length;if(i!==e.length)return N(t,n,e);for(var u,o=new Array(i),a=0;a<i;a++){if((u=r(n[a]))!==r(e[a]))return N(t,n,e);if("number"===u)o[a]=T(t,n[a],e[a]);else{if(n[a]!==e[a])return N(t,n,e);o[a]=n[a]}}return o}},Dt={f:null,i:G,u:function(t,n){return function(r){var e=n(r);t.setAttribute("x1",st(e[0])),t.setAttribute("y1",st(e[1])),t.setAttribute("x2",st(e[2])),t.setAttribute("y2",st(e[3]))}}},Vt={f:st,i:T},zt={f:st,i:L},Gt={f:function(t){var n=arguments.length>1&&void 0!==arguments[1]?arguments[1]:" ";return t&&t.length>0&&(t=t.map((function(t){return p(t,4)}))),ct(t,n)},i:function(t,n,r){var e,i,u,o=n.length,a=r.length;if(o!==a)if(0===o)n=Y(o=a,0);else if(0===a)a=o,r=Y(o,0);else{var l=(u=(e=o)*(i=a)/function(t,n){for(var r;n;)r=n,n=t%n,t=r;return t||1}(e,i))<0?-u:u;n=$(n,Math.floor(l/o)),r=$(r,Math.floor(l/a)),o=a=l}for(var f=[],s=0;s<o;s++)f.push(p(q(t,n[s],r[s])));return f}};function Yt(t,n,r){return t.map((function(t){return function(t,n,r){var e=t.v;if(!e||"g"!==e.t||e.s||!e.v||!e.r)return t;var i=r.getElementById(e.r),u=i&&i.querySelectorAll("stop")||[];return e.s=e.v.map((function(t,n){var r=u[n]&&u[n].getAttribute("offset");return{c:t,o:r=p(parseInt(r)/100)}})),delete e.v,t}(t,0,r)}))}var $t={gt:"gradientTransform",c:{x:"cx",y:"cy"},rd:"r",f:{x:"x1",y:"y1"},to:{x:"x2",y:"y2"}};function Ut(t,n,e,i,u,o,a,l){return Yt(t,0,l),n=function(t,n,r){for(var e,i,u,o=t.length-1,a={},l=0;l<=o;l++)(e=t[l]).e&&(e.e=n(e.e)),e.v&&"g"===(i=e.v).t&&i.r&&(u=r.getElementById(i.r))&&(a[i.r]={e:u,s:u.querySelectorAll("stop")});return a}(t,i,l),function(i){var u=e(i,t,Qt);if(!u)return"none";if("c"===u.t)return vt(u.v);if("g"===u.t){if(!n[u.r])return yt(u.r);var o=n[u.r];return function(t,n){for(var r=t.s,e=r.length;e<n.length;e++){var i=r[r.length-1].cloneNode();i.id=Zt(i.id),t.e.appendChild(i),r=t.s=t.e.querySelectorAll("stop")}for(var u=0,o=r.length,a=n.length-1;u<o;u++)r[u].setAttribute("stop-color",vt(n[Math.min(u,a)].c)),r[u].setAttribute("offset",n[Math.min(u,a)].o)}(o,u.s),Object.keys($t).forEach((function(t){if(void 0!==u[t])if("object"!==r($t[t])){var n,e="gt"===t?(n=u[t],Array.isArray(n)?"matrix("+n.join(" ")+")":""):u[t],i=$t[t];o.e.setAttribute(i,e)}else Object.keys($t[t]).forEach((function(n){if(void 0!==u[t][n]){var r=u[t][n],e=$t[t][n];o.e.setAttribute(e,r)}}))})),yt(u.r)}return"none"}}function Qt(t,r,e){if(0===t)return r;if(1===t)return e;if(r&&e){var i=r.t;if(i===e.t)switch(r.t){case"c":return{t:i,v:z(t,r.v,e.v)};case"g":if(r.r===e.r){var u={t:i,s:Ht(t,r.s,e.s),r:r.r};return r.gt&&e.gt&&(u.gt=G(t,r.gt,e.gt)),r.c?(u.c=C(t,r.c,e.c),u.rd=q(t,r.rd,e.rd)):r.f&&(u.f=C(t,r.f,e.f),u.to=C(t,r.to,e.to)),u}}if("c"===r.t&&"g"===e.t||"c"===e.t&&"g"===r.t){var o="c"===r.t?r:e,a="g"===r.t?n({},r):n({},e),l=a.s.map((function(t){return{c:o.v,o:t.o}}));return a.s="c"===r.t?Ht(t,l,a.s):Ht(t,a.s,l),a}}return N(t,r,e)}function Ht(t,n,r){if(n.length===r.length)return n.map((function(n,e){return Jt(t,n,r[e])}));for(var e=Math.max(n.length,r.length),i=[],u=0;u<e;u++){var o=Jt(t,n[Math.min(u,n.length-1)],r[Math.min(u,r.length-1)]);i.push(o)}return i}function Jt(t,n,r){return{o:L(t,n.o,r.o||0),c:z(t,n.c,r.c||{})}}function Zt(t){return t.replace(/-fill-([0-9]+)$/,(function(t,n){return"-fill-"+(+n+1)}))}var Kt={blur:D,brightness:q,contrast:q,"drop-shadow":function(t,n,r){return 0===t?n:1===t?r:{blur:D(t,n.blur,r.blur),offset:C(t,n.offset,r.offset),color:z(t,n.color,r.color)}},grayscale:q,"hue-rotate":T,invert:q,opacity:q,saturate:q,sepia:q};function Wt(t,n,r){if(0===t)return n;if(1===t)return r;var e=n.length;if(e!==r.length)return N(t,n,r);for(var i,u=[],o=0;o<e;o++){if(n[o].type!==r[o].type)return n;if(!(i=Kt[n[o].type]))return N(t,n,r);u.push({type:n.type,value:i(t,n[o].value,r[o].value)})}return u}var Xt={blur:function(t){return t?function(n){t.setAttribute("stdDeviation",ht(n))}:null},brightness:function(t,n,r){return(t=nn(r,n))?function(n){n=st(n),t.map((function(t){return t.setAttribute("slope",n)}))}:null},contrast:function(t,n,r){return(t=nn(r,n))?function(n){var r=st((1-n)/2);n=st(n),t.map((function(t){t.setAttribute("slope",n),t.setAttribute("intercept",r)}))}:null},"drop-shadow":function(t,n,r){var e=r.getElementById(n+"-blur");if(!e)return null;var i=r.getElementById(n+"-offset");if(!i)return null;var u=r.getElementById(n+"-flood");return u?function(t){e.setAttribute("stdDeviation",ht(t.blur)),i.setAttribute("dx",st(t.offset.x)),i.setAttribute("dy",st(t.offset.y)),u.setAttribute("flood-color",vt(t.color))}:null},grayscale:function(t){return t?function(n){t.setAttribute("values",ct(function(t){return[.2126+.7874*(t=1-t),.7152-.7152*t,.0722-.0722*t,0,0,.2126-.2126*t,.7152+.2848*t,.0722-.0722*t,0,0,.2126-.2126*t,.7152-.7152*t,.0722+.9278*t,0,0,0,0,0,1,0]}(n)))}:null},"hue-rotate":function(t){return t?function(n){return t.setAttribute("values",st(n))}:null},invert:function(t,n,r){return(t=nn(r,n))?function(n){n=st(n)+" "+st(1-n),t.map((function(t){return t.setAttribute("tableValues",n)}))}:null},opacity:function(t,n,r){return(t=r.getElementById(n+"-A"))?function(n){return t.setAttribute("tableValues","0 "+st(n))}:null},saturate:function(t){return t?function(n){return t.setAttribute("values",st(n))}:null},sepia:function(t){return t?function(n){return t.setAttribute("values",ct(function(t){return[.393+.607*(t=1-t),.769-.769*t,.189-.189*t,0,0,.349-.349*t,.686+.314*t,.168-.168*t,0,0,.272-.272*t,.534-.534*t,.131+.869*t,0,0,0,0,0,1,0]}(n)))}:null}};var tn=["R","G","B"];function nn(t,n){var r=tn.map((function(r){return t.getElementById(n+"-"+r)||null}));return-1!==r.indexOf(null)?null:r}var rn={fill:Ut,"fill-opacity":zt,stroke:Ut,"stroke-opacity":zt,"stroke-width":Vt,"stroke-dashoffset":{f:st,i:T},"stroke-dasharray":Gt,opacity:zt,transform:function(t,n,e,i){if(!(t=function(t,n){if(!t||"object"!==r(t))return null;var e=!1;for(var i in t)t.hasOwnProperty(i)&&(t[i]&&t[i].length?(t[i].forEach((function(t){t.e&&(t.e=n(t.e))})),e=!0):delete t[i]);return e?t:null}(t,i)))return null;var u=function(r,i,u){var o=arguments.length>3&&void 0!==arguments[3]?arguments[3]:null;return t[r]?e(i,t[r],u):n&&n[r]?n[r]:o};return n&&n.a&&t.o?function(n){var r=e(n,t.o,Nt);return Lt.recomposeSelf(r,u("r",n,T,0)+r.a,u("k",n,C),u("s",n,C),u("t",n,C)).toString()}:function(t){return Lt.recomposeSelf(u("o",t,Ft,null),u("r",t,T,0),u("k",t,C),u("s",t,C),u("t",t,C)).toString()}},"#filter":function(t,n,r,e,i,u,o,a){if(!n.items||!t||!t.length)return null;var l=function(t,n){var r=(t=t.map((function(t){return t&&Xt[t[0]]?(n.getElementById(t[1]),Xt[t[0]](n.getElementById(t[1]),t[1],n)):null}))).length;return function(n){for(var e=0;e<r;e++)t[e]&&t[e](n[e].value)}}(n.items,a);return l?(t=function(t,n){return t.map((function(t){return t.e=n(t.e),t}))}(t,e),function(n){l(r(n,t,Wt))}):null},"#line":Dt,points:{f:ct,i:G},d:Ct,r:Vt,"#size":pt,"#radius":gt,_:function(t,n){if(Array.isArray(t))for(var r=0;r<t.length;r++)this[t[r]]=n;else this[t]=n}},en=function(t){!function(t,n){if("function"!=typeof n&&null!==n)throw new TypeError("Super expression must either be null or a function");t.prototype=Object.create(n&&n.prototype,{constructor:{value:t,writable:!0,configurable:!0}}),n&&l(t,n)}(o,t);var n,r,i=(n=o,r=f(),function(){var t,e=a(n);if(r){var i=a(this).constructor;t=Reflect.construct(e,arguments,i)}else t=e.apply(this,arguments);return c(this,t)});function o(){return e(this,o),i.apply(this,arguments)}return u(o,null,[{key:"build",value:function(t){var n=h(a(o),"build",this).call(this,t,rn);if(!n)return null;n.el,n.options,function(t,n,r){t.play()}(n.player)}}]),o}(ft);return en.init(),en}));
(function(s,i,o,w,a,b){w[o]=w[o]||{};w[o][s]=w[o][s]||[];w[o][s].push(i);})('7c8cb2ed',{"root":"eChVbAOpLjW1","animations":[{"elements":{"eChVbAOpLjW58":{"transform":{"data":{"o":{"x":422.400024,"y":272.399986,"type":"corner"},"t":{"x":-422.400024,"y":-272.399986}},"keys":{"r":[{"t":1600,"v":0},{"t":2800,"v":360},{"t":6800,"v":360},{"t":8000,"v":0}]}}},"eChVbAOpLjW72":{"fill-opacity":[{"t":0,"v":0.3},{"t":200,"v":1},{"t":400,"v":0.3},{"t":9200,"v":0.3},{"t":9400,"v":1},{"t":9600,"v":0.3}]},"eChVbAOpLjW73":{"fill-opacity":[{"t":600,"v":0.3},{"t":800,"v":1},{"t":1000,"v":0.3},{"t":8600,"v":0.3},{"t":8800,"v":1},{"t":9000,"v":0.3}]},"eChVbAOpLjW74":{"fill-opacity":[{"t":1200,"v":0.3},{"t":1400,"v":1},{"t":1600,"v":0.3},{"t":8000,"v":0.3},{"t":8200,"v":1},{"t":8400,"v":0.3}]},"eChVbAOpLjW76":{"fill-opacity":[{"t":2800,"v":0.3},{"t":3000,"v":1},{"t":3200,"v":0.3},{"t":6400,"v":0.3},{"t":6600,"v":1},{"t":6800,"v":0.3}]},"eChVbAOpLjW77":{"fill-opacity":[{"t":3400,"v":0.3},{"t":3600,"v":1},{"t":3800,"v":0.3},{"t":5800,"v":0.3},{"t":6000,"v":1},{"t":6200,"v":0.3}]},"eChVbAOpLjW78":{"fill-opacity":[{"t":4000,"v":0.3},{"t":4200,"v":1},{"t":4400,"v":0.3},{"t":5200,"v":0.3},{"t":5400,"v":1},{"t":5600,"v":0.3}]}},"s":"MDA1PNGEzNGE4YzlkOWE4OTljOTE5YNzk2NGE2MjU5NTg1ODU4NTg1WNDRhOGM5MTlhOGQ4YjljOTE5NNzk2NGE2MjU5NTQ0YTkxOWM4UZDlhODk5YzkxOTc5NjliNGE2CMjU4NTQ0YThlOTE5NDk0NGE2EMjU5NTQ0YTg5OTQ5YzhkOWFTQOTY4OTljOGQ0YTYyOGU4OUQ5CNDliOGQ1NDRhOWI5ODhkOGQ4JYzRhNjI1OWE1"}],"options":"MDAxQMDhmWDM2ODc4ODc1ODY4ODM2SNGUzNjgwODM3NTc4MzY5MQ|"},'__SVGATOR_PLAYER__',window)]]></script></svg>